<svg id="Group_179" data-name="Group 179" xmlns="http://www.w3.org/2000/svg" width="249.496" height="33.363" viewBox="0 0 249.496 33.363">
  <path id="Path_117" data-name="Path 117" d="M31.149,28.445l2.261,11.5h.043l.063-.655.634-3.825,1.374-7.017h1.86l1.48,15.936H36.792l-.381-5.939-.126-2.959-.043-2.092H36.2l-.359,2.282-1.649,8.708H32.734l-2.05-10.99h-.042l-.613,10.99H28.021l1.31-15.936Z" transform="translate(-28.021 -28.233)" fill="#fff"/>
  <path id="Path_118" data-name="Path 118" d="M70.615,44.381H68.5V28.445h2.113Z" transform="translate(-54.278 -28.233)" fill="#fff"/>
  <path id="Path_119" data-name="Path 119" d="M91.8,30.231a3.053,3.053,0,0,0-1.353-.4c-2.959,0-2.98,4.312-2.98,6.3,0,2.113.169,6.087,3.065,6.087A2.627,2.627,0,0,0,91.8,41.9v1.86a2.986,2.986,0,0,1-1.691.444c-4.312,0-4.882-4.586-4.882-7.925,0-3.191.4-8.433,4.734-8.433a3.273,3.273,0,0,1,1.839.465Z" transform="translate(-65.124 -27.843)" fill="#fff"/>
  <path id="Path_120" data-name="Path 120" d="M115.185,28.445v6.214h3.191V28.445h2.113V44.381h-2.113V36.5h-3.191v7.883h-2.113V28.445Z" transform="translate(-83.188 -28.233)" fill="#fff"/>
  <path id="Path_121" data-name="Path 121" d="M147.743,28.445l3.424,15.936h-2.135l-.592-3.107h-3.17l-.592,3.107h-2.071l3.466-15.936Zm-.042,8.877-.8-5.791h-.042l-1.268,8.094h2.536Z" transform="translate(-102.345 -28.233)" fill="#fff"/>
  <path id="Path_122" data-name="Path 122" d="M181.133,28.445v1.839h-3.572v5.009h3.191v1.839h-3.191v5.41h3.572v1.839h-5.685V28.445Z" transform="translate(-123.647 -28.233)" fill="#fff"/>
  <path id="Path_123" data-name="Path 123" d="M202.945,28.445v14.1H206.5v1.839h-5.664V28.445Z" transform="translate(-140.111 -28.233)" fill="#fff"/>
  <path id="Path_124" data-name="Path 124" d="M244.25,28.445V36.1l2.98-7.651h2.177l-3.128,7.714,3.382,8.222h-2.43l-2.98-8.074v8.074h-2.156V28.445Z" transform="translate(-166.876 -28.233)" fill="#fff"/>
  <path id="Path_125" data-name="Path 125" d="M271.027,68.308A1.268,1.268,0,1,1,272.3,69.6,1.268,1.268,0,0,1,271.027,68.308Z" transform="translate(-185.643 -53.281)" fill="#fff"/>
  <path id="Path_126" data-name="Path 126" d="M307.589,33.179l.317,5.347v5.854h-2.114V28.445h2.029l3.72,12.11.042-.042-.507-6.383V28.445h2.113V44.381h-1.966L307.5,32.1l-.043.042Z" transform="translate(-208.192 -28.233)" fill="#fff"/>
  <path id="Path_127" data-name="Path 127" d="M344.38,28.445v1.839h-3.572v5.009H344v1.839h-3.191v5.41h3.572v1.839H338.7V28.445Z" transform="translate(-229.534 -28.233)" fill="#fff"/>
  <path id="Path_128" data-name="Path 128" d="M362.6,28.445l1.5,10.8.084,1.184h.042l.634-5.347,1.1-6.636h1.648l1.733,11.878h.042l.571-5.115.972-6.763h2.05l-2.789,15.936H368.5l-1.2-7.418-.486-4.015-.021-.4h-.042l-.465,4.29-1.268,7.545h-1.733l-2.747-15.936Z" transform="translate(-243.697 -28.233)" fill="#fff"/>
  <path id="Path_129" data-name="Path 129" d="M405.1,28.445l2.261,11.5h.042l.063-.655.634-3.825,1.374-7.017h1.86l1.48,15.936h-2.071l-.38-5.939-.127-2.959L410.2,33.39h-.042l-.359,2.282-1.648,8.708h-1.458l-2.05-10.99h-.042l-.613,10.99h-2.008l1.31-15.936Z" transform="translate(-270.579 -28.233)" fill="#fff"/>
  <path id="Path_130" data-name="Path 130" d="M444.162,28.445l3.424,15.936h-2.135l-.592-3.107h-3.17l-.591,3.107h-2.072l3.467-15.936Zm-.043,8.877-.8-5.791h-.042l-1.268,8.094h2.536Z" transform="translate(-294.612 -28.233)" fill="#fff"/>
  <path id="Path_131" data-name="Path 131" d="M473.665,33.179l.317,5.347v5.854h-2.114V28.445H473.9l3.72,12.11.042-.042-.507-6.383V28.445h2.113V44.381H477.3L473.58,32.1l-.042.042Z" transform="translate(-315.915 -28.233)" fill="#fff"/>
  <path id="Path_132" data-name="Path 132" d="M504.771,67.95l-2.05,5.6-1.078-.3,1.416-5.833Z" transform="translate(-335.228 -53.515)" fill="#fff"/>
  <path id="Path_133" data-name="Path 133" d="M539.355,28.445l2.261,11.5h.042l.064-.655.634-3.825,1.374-7.017h1.86l1.48,15.936H545l-.38-5.939-.127-2.959-.042-2.092h-.042l-.359,2.282L542.4,44.381h-1.458l-2.05-10.99h-.043l-.613,10.99h-2.008l1.311-15.936Z" transform="translate(-357.66 -28.233)" fill="#fff"/>
  <path id="Path_134" data-name="Path 134" d="M579.076,28.445c2.494,0,5.326.169,5.326,8.242,0,7.355-2.452,7.693-6.235,7.693h-1.458V28.445Zm-.253,1.8V42.584c3.487.106,3.339-3.191,3.339-5.9C582.161,34.236,582.395,30.03,578.823,30.242Z" transform="translate(-383.918 -28.233)" fill="#fff"/>
  <path id="Path_135" data-name="Path 135" d="M609.25,67.95l-2.05,5.6-1.078-.3,1.416-5.833Z" transform="translate(-402.996 -53.515)" fill="#fff"/>
  <path id="Path_136" data-name="Path 136" d="M648.661,28.445v1.839h-3.614v5.009H648.3v1.839h-3.255v7.249h-2.113V28.445Z" transform="translate(-426.874 -28.233)" fill="#fff"/>
  <path id="Path_137" data-name="Path 137" d="M667.5,28.445l3.424,15.936h-2.135l-.592-3.107h-3.17l-.591,3.107h-2.072l3.466-15.936Zm-.042,8.877-.8-5.791h-.042l-1.268,8.094h2.536Z" transform="translate(-439.476 -28.233)" fill="#fff"/>
  <path id="Path_138" data-name="Path 138" d="M700.635,30.231a3.051,3.051,0,0,0-1.352-.4c-2.959,0-2.98,4.312-2.98,6.3,0,2.113.169,6.087,3.065,6.087a2.628,2.628,0,0,0,1.268-.317v1.86a2.986,2.986,0,0,1-1.691.444c-4.312,0-4.882-4.586-4.882-7.925,0-3.191.4-8.433,4.734-8.433a3.274,3.274,0,0,1,1.839.465Z" transform="translate(-460.037 -27.843)" fill="#fff"/>
  <path id="Path_139" data-name="Path 139" d="M725.176,30.506a2.9,2.9,0,0,0-1.8-.676,1.913,1.913,0,0,0-1.881,2.05,2.58,2.58,0,0,0,.592,1.733l1.606,1.754c1.438,1.459,2.262,2.515,2.262,4.671,0,2.24-1.4,4.163-3.741,4.163a3.7,3.7,0,0,1-2.325-.761V41.306a3.449,3.449,0,0,0,2.092.824c1.311,0,1.86-1.035,1.86-2.219,0-3.17-4.46-3.8-4.46-7.989,0-2.24,1.184-4.079,3.572-4.079a4.284,4.284,0,0,1,2.24.528Z" transform="translate(-476.462 -27.843)" fill="#fff"/>
  <path id="Path_140" data-name="Path 140" d="M99.731,102.487h1.123c1.241,0,2.282.453,2.282,1.847a1.516,1.516,0,0,1-.67,1.331,1.736,1.736,0,0,1,1.295,1.748c0,1.358-1.1,1.9-2.445,1.9H99.731Zm.761,3.007h.29c.86,0,1.594-.1,1.594-1.159,0-1.032-.652-1.141-1.585-1.141h-.3Zm0,3.115h.761c.851,0,1.748-.208,1.748-1.25,0-1.059-1.014-1.214-1.847-1.214h-.661Z" transform="translate(-74.534 -76.26)" fill="#fff"/>
  <path id="Path_141" data-name="Path 141" d="M119.259,109.315H118.5v-6.828h.987c1.295,0,2.5.344,2.5,1.884a1.784,1.784,0,0,1-1.712,1.883l2.173,3.061h-.933l-2.065-3h-.19Zm0-3.668h.235c.86,0,1.73-.163,1.73-1.222,0-1.123-.824-1.232-1.739-1.232h-.226Z" transform="translate(-86.707 -76.26)" fill="#fff"/>
  <path id="Path_142" data-name="Path 142" d="M136.6,102.487h3.541v.707h-2.78v2.028h2.7v.706h-2.7v2.681h2.78v.706H136.6Z" transform="translate(-98.446 -76.26)" fill="#fff"/>
  <path id="Path_143" data-name="Path 143" d="M154.339,106.776l-.824,1.938h-.833l3.151-7.154,3.07,7.154h-.842l-.806-1.938Zm1.476-3.441-1.168,2.735h2.309Z" transform="translate(-108.88 -75.658)" fill="#fff"/>
  <path id="Path_144" data-name="Path 144" d="M179.126,103.6a1.254,1.254,0,0,0-1.177-.742,1.083,1.083,0,0,0-1.132,1.06c0,.588.607.86,1.069,1.069l.453.2c.887.39,1.639.833,1.639,1.92a2.155,2.155,0,0,1-4.274.344l.742-.208a1.407,1.407,0,0,0,1.367,1.268,1.373,1.373,0,0,0,1.4-1.331c0-.8-.625-1.069-1.259-1.358l-.416-.181c-.8-.362-1.485-.769-1.485-1.748a1.792,1.792,0,0,1,1.911-1.739,1.959,1.959,0,0,1,1.766,1.06Z" transform="translate(-123.812 -76.042)" fill="#fff"/>
  <path id="Path_145" data-name="Path 145" d="M195.873,109.315h-.761v-6.122h-1.648v-.707h4.075v.707h-1.666Z" transform="translate(-135.333 -76.26)" fill="#fff"/>
  <path id="Path_146" data-name="Path 146" d="M223.323,106.776l-.824,1.938h-.833l3.151-7.154,3.07,7.154h-.842l-.806-1.938Zm1.476-3.441-1.168,2.735h2.309Z" transform="translate(-153.626 -75.658)" fill="#fff"/>
  <path id="Path_147" data-name="Path 147" d="M245.743,101.663l5.325,5.578v-5.289h.761v7.136l-5.325-5.569v5.261h-.761Z" transform="translate(-169.243 -75.725)" fill="#fff"/>
  <path id="Path_148" data-name="Path 148" d="M271.239,102.487h1.286a3.723,3.723,0,0,1,2.662.824,3.507,3.507,0,0,1,.018,5.144,3.63,3.63,0,0,1-2.7.86h-1.268Zm1.313,6.122a2.864,2.864,0,0,0,2.155-.707,2.791,2.791,0,0,0-.036-4.048,2.936,2.936,0,0,0-2.119-.661H272v5.415Z" transform="translate(-185.78 -76.26)" fill="#fff"/>
  <path id="Path_149" data-name="Path 149" d="M304.906,102.487h1.123c1.241,0,2.282.453,2.282,1.847a1.515,1.515,0,0,1-.67,1.331,1.736,1.736,0,0,1,1.3,1.748c0,1.358-1.1,1.9-2.445,1.9h-1.585Zm.761,3.007h.29c.86,0,1.594-.1,1.594-1.159,0-1.032-.652-1.141-1.585-1.141h-.3Zm0,3.115h.761c.851,0,1.748-.208,1.748-1.25,0-1.059-1.014-1.214-1.847-1.214h-.661Z" transform="translate(-207.618 -76.26)" fill="#fff"/>
  <path id="Path_150" data-name="Path 150" d="M329.813,105.693a3.559,3.559,0,1,1-3.559-3.541A3.54,3.54,0,0,1,329.813,105.693Zm-6.357-.009a2.8,2.8,0,1,0,2.8-2.825A2.823,2.823,0,0,0,323.455,105.684Z" transform="translate(-219.156 -76.042)" fill="#fff"/>
  <path id="Path_151" data-name="Path 151" d="M350.02,102.487h1.286a3.723,3.723,0,0,1,2.662.824,3.507,3.507,0,0,1,.018,5.144,3.631,3.631,0,0,1-2.7.86H350.02Zm1.313,6.122a2.864,2.864,0,0,0,2.155-.707,2.791,2.791,0,0,0-.036-4.048,2.938,2.938,0,0,0-2.119-.661h-.552v5.415Z" transform="translate(-236.88 -76.26)" fill="#fff"/>
  <path id="Path_152" data-name="Path 152" d="M369.871,102.487h.878l1.739,3.043,1.738-3.043h.878l-2.237,3.894v2.934h-.76v-2.934Z" transform="translate(-249.756 -76.26)" fill="#fff"/>
  <path id="Path_153" data-name="Path 153" d="M403.86,109.315h-.76v-6.828h1.123a2.876,2.876,0,0,1,1.693.363,1.88,1.88,0,0,1,.77,1.557,1.917,1.917,0,0,1-.652,1.467,2.461,2.461,0,0,1-1.621.453h-.552Zm0-3.695h.507c.842,0,1.558-.253,1.558-1.232,0-1.114-.9-1.2-1.784-1.2h-.281Z" transform="translate(-271.31 -76.26)" fill="#fff"/>
  <path id="Path_154" data-name="Path 154" d="M420.951,108.609h1.884v.706h-2.644v-6.828h.76Z" transform="translate(-282.395 -76.26)" fill="#fff"/>
  <path id="Path_155" data-name="Path 155" d="M433.836,106.776l-.824,1.938h-.833l3.151-7.154,3.07,7.154h-.843l-.806-1.938Zm1.476-3.441-1.168,2.735h2.31Z" transform="translate(-290.171 -75.658)" fill="#fff"/>
  <path id="Path_156" data-name="Path 156" d="M458.622,103.6a1.253,1.253,0,0,0-1.177-.742,1.083,1.083,0,0,0-1.132,1.06c0,.588.607.86,1.069,1.069l.453.2c.888.39,1.639.833,1.639,1.92a2.155,2.155,0,0,1-4.274.344l.742-.208a1.407,1.407,0,0,0,1.368,1.268,1.373,1.373,0,0,0,1.4-1.331c0-.8-.625-1.069-1.259-1.358l-.416-.181c-.8-.362-1.485-.769-1.485-1.748a1.792,1.792,0,0,1,1.911-1.739,1.959,1.959,0,0,1,1.766,1.06Z" transform="translate(-305.103 -76.042)" fill="#fff"/>
  <path id="Path_157" data-name="Path 157" d="M475.37,109.315h-.761v-6.122h-1.648v-.707h4.075v.707H475.37Z" transform="translate(-316.624 -76.26)" fill="#fff"/>
  <path id="Path_158" data-name="Path 158" d="M491.714,109.315h-.761v-6.828h.761Z" transform="translate(-328.294 -76.26)" fill="#fff"/>
  <path id="Path_159" data-name="Path 159" d="M505.676,103.764a2.924,2.924,0,0,0-2.083-.905,2.826,2.826,0,0,0,.018,5.651,2.99,2.99,0,0,0,2.065-.905v.942a3.514,3.514,0,0,1-2.038.67,3.532,3.532,0,1,1,0-7.064,3.3,3.3,0,0,1,2.038.67Z" transform="translate(-334.214 -76.042)" fill="#fff"/>
  <path id="Path_160" data-name="Path 160" d="M538.357,103.6a1.253,1.253,0,0,0-1.177-.742,1.083,1.083,0,0,0-1.132,1.06c0,.588.607.86,1.069,1.069l.453.2c.888.39,1.639.833,1.639,1.92a2.155,2.155,0,0,1-4.274.344l.742-.208a1.407,1.407,0,0,0,1.367,1.268,1.373,1.373,0,0,0,1.4-1.331c0-.8-.625-1.069-1.259-1.358l-.417-.181c-.8-.362-1.485-.769-1.485-1.748a1.792,1.792,0,0,1,1.911-1.739,1.959,1.959,0,0,1,1.766,1.06Z" transform="translate(-356.822 -76.042)" fill="#fff"/>
  <path id="Path_161" data-name="Path 161" d="M555.106,106.553a2.525,2.525,0,0,0,.3,1.521,1.761,1.761,0,0,0,1.376.652,1.807,1.807,0,0,0,1.34-.607,2.352,2.352,0,0,0,.335-1.566v-4.066h.761v4.274a2.4,2.4,0,0,1-.6,1.892,2.512,2.512,0,0,1-1.838.779,2.554,2.554,0,0,1-1.766-.7,2.408,2.408,0,0,1-.67-1.974v-4.274h.761Z" transform="translate(-369.412 -76.26)" fill="#fff"/>
  <path id="Path_162" data-name="Path 162" d="M576.94,109.315h-.76v-6.828h.987c1.3,0,2.5.344,2.5,1.884a1.784,1.784,0,0,1-1.712,1.883l2.174,3.061H579.2l-2.065-3h-.19Zm0-3.668h.236c.86,0,1.729-.163,1.729-1.222,0-1.123-.824-1.232-1.739-1.232h-.226Z" transform="translate(-383.575 -76.26)" fill="#fff"/>
  <path id="Path_163" data-name="Path 163" d="M599.889,105.666a3.249,3.249,0,0,1-.707,2.409,3.374,3.374,0,0,1-2.526,1.141,3.532,3.532,0,1,1,2.934-5.587l-.552.516a2.777,2.777,0,0,0-2.345-1.286,2.833,2.833,0,0,0-2.789,2.852,2.752,2.752,0,0,0,.8,1.929,2.868,2.868,0,0,0,1.938.869,2.342,2.342,0,0,0,2.436-2.137h-2.028v-.706Z" transform="translate(-394.578 -76.042)" fill="#fff"/>
  <path id="Path_164" data-name="Path 164" d="M619.54,102.487h3.54v.707H620.3v2.028H623v.706h-2.7v2.681h2.78v.706h-3.54Z" transform="translate(-411.7 -76.26)" fill="#fff"/>
  <path id="Path_165" data-name="Path 165" d="M638.192,109.315h-.761v-6.828h.987c1.3,0,2.5.344,2.5,1.884a1.784,1.784,0,0,1-1.712,1.883l2.174,3.061h-.932l-2.065-3h-.19Zm0-3.668h.235c.86,0,1.729-.163,1.729-1.222,0-1.123-.824-1.232-1.739-1.232h-.226Z" transform="translate(-423.304 -76.26)" fill="#fff"/>
  <path id="Path_166" data-name="Path 166" d="M653.26,102.487h.878l1.739,3.043,1.739-3.043h.878l-2.237,3.894v2.934h-.76v-2.934Z" transform="translate(-433.572 -76.26)" fill="#fff"/>
</svg>
